<svg width="160" height="68" viewBox="0 0 160 68" fill="none" xmlns="http://www.w3.org/2000/svg">
<rect x="1" y="1" width="158" height="66" rx="11" stroke="#F05B1B" stroke-width="2"/>
<path d="M25.248 38.28V40.488H19.328V42.744H24.656V44.856H19.328V49H17.056V38.28H25.248ZM35.796 49H33.22L32.324 46.728H27.828L26.948 49H24.452L28.852 38.28H31.38L35.796 49ZM30.068 41.016L28.612 44.728H31.524L30.068 41.016ZM44.1206 44.664H46.4726C46.302 45.9867 45.7206 47.08 44.7286 47.944C43.7473 48.7973 42.5206 49.224 41.0486 49.224C39.406 49.224 38.0726 48.6907 37.0486 47.624C36.0246 46.5467 35.5126 45.224 35.5126 43.656C35.5126 42.0773 36.0246 40.7493 37.0486 39.672C38.0726 38.584 39.406 38.04 41.0486 38.04C42.478 38.04 43.6833 38.4613 44.6646 39.304C45.6566 40.1467 46.2486 41.2133 46.4406 42.504H44.0726C43.8913 41.832 43.5286 41.2933 42.9846 40.888C42.4513 40.472 41.8006 40.2693 41.0326 40.28C40.0726 40.2907 39.2993 40.6213 38.7126 41.272C38.126 41.912 37.8326 42.7013 37.8326 43.64C37.8326 44.5787 38.126 45.3733 38.7126 46.024C39.2993 46.6747 40.0833 47 41.0646 47C41.8433 47 42.5046 46.7867 43.0486 46.36C43.6033 45.9333 43.9606 45.368 44.1206 44.664ZM55.7884 49H47.5804V38.28H55.7884V40.488H49.8524V42.488H55.1004V44.6H49.8524V46.792H55.7884V49ZM57.1979 49V38.28H59.4699V49H57.1979ZM60.4563 38.28H69.9283V40.488H66.3283V49H64.0403V40.488H60.4563V38.28Z" fill="#F05B1B"/>
<path fill-rule="evenodd" clip-rule="evenodd" d="M134.981 18.5669L143.962 34L134.981 49.433H117.02L108.039 33.9999L117.02 18.5669H134.981ZM132.814 21.9717L139.632 33.9971L132.814 46.0225H119.179L112.361 33.9971L119.179 21.9717H132.814ZM132.152 28.3236V38.4728C132.152 38.5434 132.081 38.5918 132.016 38.5659L119.271 33.5389C119.169 33.4986 119.197 33.3469 119.307 33.3459L128.657 33.2629L131.969 28.2683C132.024 28.1857 132.152 28.2245 132.152 28.3236Z" fill="#F05B1B"/>
</svg>
