<svg width="36" height="36" viewBox="0 0 36 36" fill="none" xmlns="http://www.w3.org/2000/svg">
<path fill-rule="evenodd" clip-rule="evenodd" d="M26.1718 1.96188C23.6408 0.672283 20.8406 0 18 0V3.6C20.2725 3.6 22.5127 4.13783 24.5375 5.16951C26.5622 6.20119 28.3141 7.69743 29.6498 9.53589C30.9856 11.3744 31.8672 13.5029 32.2227 15.7473C32.5782 17.9918 32.3974 20.2886 31.6952 22.4498L35.119 23.5623C35.9968 20.8607 36.2228 17.9898 35.7784 15.1842C35.334 12.3786 34.232 9.71795 32.5623 7.41987C30.8927 5.12178 28.7028 3.25148 26.1718 1.96188ZM18 8C19.5781 8 21.1338 8.37349 22.5399 9.08994C23.946 9.80638 25.1626 10.8454 26.0902 12.1221C27.0178 13.3989 27.63 14.877 27.8769 16.4357C28.1238 17.9943 27.9982 19.5893 27.5106 21.0902L25.6085 20.4721C25.9986 19.2714 26.099 17.9955 25.9015 16.7485C25.704 15.5016 25.2142 14.3191 24.4721 13.2977C23.7301 12.2763 22.7568 11.4451 21.6319 10.8719C20.507 10.2988 19.2625 10 18 10V8ZM9.82817 34.0381C12.3592 35.3277 15.1594 36 18 36V32.4C15.7275 32.4 13.4873 31.8622 11.4625 30.8305C9.43775 29.7988 7.68588 28.3026 6.35016 26.4641C5.01443 24.6256 4.13278 22.4971 3.77729 20.2527C3.4218 18.0082 3.60256 15.7114 4.30479 13.5502L0.880985 12.4377C0.00319508 15.1393 -0.222754 18.0102 0.221612 20.8158C0.665978 23.6214 1.76804 26.2821 3.4377 28.5801C5.10735 30.8782 7.29719 32.7485 9.82817 34.0381ZM23 18C23 20.7614 20.7614 23 18 23C15.2386 23 13 20.7614 13 18C13 15.2386 15.2386 13 18 13C20.7614 13 23 15.2386 23 18ZM18 28C16.4219 28 14.8662 27.6265 13.4601 26.9101C12.054 26.1936 10.8374 25.1546 9.90983 23.8779C8.98225 22.6011 8.36999 21.123 8.12312 19.5643C7.87625 18.0057 8.00178 16.4107 8.48944 14.9098L10.3916 15.5279C10.0014 16.7286 9.901 18.0045 10.0985 19.2515C10.296 20.4984 10.7858 21.6809 11.5279 22.7023C12.2699 23.7237 13.2432 24.5549 14.3681 25.1281C15.493 25.7012 16.7375 26 18 26V28Z" fill="white"/>
</svg>
