<svg width="107" height="120" viewBox="0 0 107 120" fill="none" xmlns="http://www.w3.org/2000/svg">
<path d="M58.4816 57.4787C58.4816 53.7565 61.2314 50.7666 64.7146 50.7666C68.1366 50.7666 70.9476 53.7565 70.9476 57.4787C70.9476 61.2008 68.1977 64.1907 64.7146 64.1907C61.2925 64.1907 58.4816 61.2008 58.4816 57.4787Z" fill="white"/>
<path d="M36.1772 57.4787C36.1772 53.7565 38.927 50.7666 42.4102 50.7666C45.8933 50.7666 48.7043 53.7565 48.6432 57.4787C48.6432 61.2008 45.8933 64.1907 42.4102 64.1907C38.9881 64.1907 36.1772 61.2008 36.1772 57.4787Z" fill="white"/>
<path fill-rule="evenodd" clip-rule="evenodd" d="M12.5271 0H94.4118C101.317 0 106.939 5.61372 107 12.5088V121L93.8007 109.59L86.4066 102.816L78.5848 95.6162L81.8235 106.783H12.5271C5.62193 106.783 0 101.169 0 94.2738V12.5088C0 5.61372 5.62193 0 12.5271 0ZM66.791 74.1377C68.6242 76.3954 70.8241 79.0192 70.8241 79.0192C83.6187 78.6145 88.8989 70.7065 89.4189 69.9277C89.4478 69.8844 89.462 69.8664 89.462 69.8664C89.462 50.4014 80.6625 34.5976 80.6625 34.5976C71.924 28.0686 63.5522 28.2516 63.5522 28.2516L62.6967 29.2279C73.0851 32.3399 77.9126 36.9163 77.9126 36.9163C71.5574 33.4992 65.3244 31.7907 59.5191 31.1195C55.1194 30.6314 50.9029 30.7534 47.1753 31.2416C46.8553 31.2416 46.5818 31.2881 46.2735 31.3405C46.2287 31.3481 46.1831 31.3558 46.1365 31.3636C43.9977 31.6077 38.8035 32.3399 32.265 35.2078C30.004 36.1841 28.6596 36.9163 28.6596 36.9163C28.6596 36.9163 33.6705 32.0958 44.6699 28.9839L44.0588 28.2516C44.0588 28.2516 35.7481 28.0686 26.9486 34.5976C26.9486 34.5976 18.1491 50.4014 18.1491 69.8664C18.1491 69.8664 23.2821 78.6531 36.787 79.0802C36.787 79.0802 39.048 76.3954 40.8812 74.0767C33.1205 71.7579 30.1873 66.9375 30.1873 66.9375C30.1873 66.9375 30.7984 67.3646 31.8983 67.9748C31.9361 67.9748 31.9739 67.9981 32.0261 68.0303C32.0583 68.0502 32.0961 68.0735 32.1428 68.0968C32.2344 68.1579 32.3261 68.2036 32.4178 68.2494C32.5094 68.2951 32.6011 68.3409 32.6927 68.4019C34.2204 69.2562 35.7481 69.9274 37.1536 70.4765C39.659 71.5139 42.6533 72.4291 46.1365 73.1004C50.7196 73.9546 56.0971 74.2597 61.9635 73.1614C64.8355 72.6122 67.7687 71.819 70.8241 70.5376C72.9629 69.7443 75.3461 68.585 77.8515 66.9375C77.8515 66.9375 74.7961 71.88 66.791 74.1377Z" fill="white"/>
</svg>
