<svg width="160" height="68" viewBox="0 0 160 68" fill="none" xmlns="http://www.w3.org/2000/svg">
<rect x="1" y="1" width="158" height="66" rx="11" stroke="#86A0BA" stroke-width="2"/>
<path d="M19.696 38.28H25.216V40.488H19.856C19.5787 40.488 19.3653 40.5627 19.216 40.712C19.0667 40.8613 18.992 41.0427 18.992 41.256C18.992 41.4373 19.0507 41.6027 19.168 41.752C19.2853 41.9013 19.4507 42.0027 19.664 42.056L23.488 42.952C24.2773 43.1333 24.88 43.5013 25.296 44.056C25.712 44.6 25.92 45.2133 25.92 45.896C25.92 46.7387 25.632 47.4693 25.056 48.088C24.4907 48.696 23.7013 49 22.688 49H16.944V46.776H22.608C22.8747 46.776 23.088 46.6907 23.248 46.52C23.4187 46.3493 23.504 46.152 23.504 45.928C23.504 45.4907 23.264 45.2187 22.784 45.112L18.944 44.2C18.1653 44.008 17.568 43.6453 17.152 43.112C16.736 42.568 16.528 41.9653 16.528 41.304C16.528 40.4827 16.8053 39.7733 17.36 39.176C17.9253 38.5787 18.704 38.28 19.696 38.28ZM25.7206 38.28H35.1926V40.488H31.5926V49H29.3046V40.488H25.7206V38.28ZM44.3584 49H36.1504V38.28H44.3584V40.488H38.4224V42.488H43.6704V44.6H38.4224V46.792H44.3584V49ZM56.3123 49H53.7363L52.8403 46.728H48.3443L47.4643 49H44.9683L49.3683 38.28H51.8963L56.3123 49ZM50.5843 41.016L49.1283 44.728H52.0403L50.5843 41.016ZM69.0595 38.28V49H66.7875V41.64L63.7315 49H62.2755L59.2355 41.672V49H56.9635V38.28H60.1155L63.0275 45.416L65.9395 38.28H69.0595Z" fill="#86A0BA"/>
<path fill-rule="evenodd" clip-rule="evenodd" d="M108 32.8641L117.675 36.7973C117.939 36.6243 118.22 36.4744 118.52 36.3523C119.2 36.0727 119.917 35.9475 120.631 35.98L125.043 29.5816C125.042 29.5531 125.042 29.5228 125.042 29.4926C125.042 25.7164 128.114 22.6445 131.89 22.6445C135.667 22.6445 138.738 25.7164 138.738 29.4926C138.738 33.2684 135.667 36.3431 131.89 36.3431C131.839 36.3431 131.786 36.3415 131.735 36.34L125.422 40.8438C125.441 41.5391 125.312 42.236 125.037 42.9003C123.978 45.442 121.044 46.6517 118.5 45.5903C116.944 44.9429 115.89 43.5971 115.546 42.0629L108.786 39.3869C111.08 46.6964 117.918 52 125.982 52C135.923 52 144 43.9411 144 34C144 24.0589 135.923 16 125.982 16C116.423 16 108.587 23.4522 108 32.8641ZM118.939 44.5366C120.903 45.3539 123.164 44.4222 123.983 42.4584C124.379 41.5098 124.381 40.4591 123.989 39.5074C123.598 38.5556 122.859 37.8109 121.907 37.4153C120.962 37.0229 119.951 37.0353 119.062 37.3721L121.367 38.3254C122.815 38.928 123.5 40.5905 122.896 42.0382C122.294 43.4844 120.631 44.1704 119.182 43.5678L116.953 42.6454C117.348 43.4689 118.032 44.1596 118.939 44.5366ZM127.327 29.4926C127.327 32.0092 129.375 34.0564 131.89 34.0564C134.406 34.0564 136.453 32.0092 136.453 29.4926C136.453 26.978 134.406 24.9301 131.89 24.9301C129.375 24.9301 127.327 26.978 127.327 29.4926ZM131.897 26.057C130.006 26.057 128.471 27.5924 128.471 29.4856C128.471 31.3789 130.006 32.913 131.897 32.913C133.79 32.913 135.325 31.3789 135.325 29.4856C135.325 27.5924 133.79 26.057 131.897 26.057Z" fill="#86A0BA"/>
</svg>
