<svg width="24" height="24" viewBox="0 0 24 24" fill="none" xmlns="http://www.w3.org/2000/svg">
<path d="M19.8991 6.77333C18.4541 5.65333 16.7202 5.09333 14.8899 5L14.6009 5.28C16.2385 5.65333 17.6835 6.4 19.0321 7.42667C17.3945 6.58667 15.5642 6.02667 13.6376 5.84C13.0596 5.74667 12.578 5.74667 12 5.74667C11.422 5.74667 10.9404 5.74667 10.3624 5.84C8.43578 6.02667 6.6055 6.58667 4.96789 7.42667C6.31651 6.4 7.76147 5.65333 9.39908 5.28L9.11009 5C7.27982 5.09333 5.54587 5.65333 4.10092 6.77333C2.4633 9.76 1.59633 13.12 1.5 16.5733C2.94495 18.0667 4.96789 19 7.08716 19C7.08716 19 7.76147 18.2533 8.24312 17.6C6.99083 17.32 5.83486 16.6667 5.06422 15.64C5.73853 16.0133 6.41284 16.3867 7.08716 16.6667C7.95413 17.04 8.8211 17.2267 9.68807 17.4133C10.4587 17.5067 11.2294 17.6 12 17.6C12.7706 17.6 13.5413 17.5067 14.3119 17.4133C15.1789 17.2267 16.0459 17.04 16.9128 16.6667C17.5872 16.3867 18.2615 16.0133 18.9358 15.64C18.1651 16.6667 17.0092 17.32 15.7569 17.6C16.2385 18.2533 16.9128 19 16.9128 19C19.0321 19 21.055 18.0667 22.5 16.5733C22.4037 13.12 21.5367 9.76 19.8991 6.77333ZM8.8211 14.8933C7.8578 14.8933 6.99083 14.0533 6.99083 13.0267C6.99083 12 7.8578 11.16 8.8211 11.16C9.7844 11.16 10.6514 12 10.6514 13.0267C10.6514 14.0533 9.7844 14.8933 8.8211 14.8933ZM15.1789 14.8933C14.2156 14.8933 13.3486 14.0533 13.3486 13.0267C13.3486 12 14.2156 11.16 15.1789 11.16C16.1422 11.16 17.0092 12 17.0092 13.0267C17.0092 14.0533 16.1422 14.8933 15.1789 14.8933Z" fill="white"/>
</svg>
