<svg width="24" height="24" viewBox="0 0 24 24" fill="none" xmlns="http://www.w3.org/2000/svg">
<path fill-rule="evenodd" clip-rule="evenodd" d="M12.0008 4C9.82812 4 9.55545 4.0095 8.7021 4.04833C7.85041 4.08734 7.26907 4.22217 6.76039 4.42001C6.23421 4.62435 5.78787 4.89769 5.34319 5.34253C4.89819 5.7872 4.62485 6.23355 4.41984 6.75956C4.2215 7.2684 4.0865 7.84991 4.04817 8.70126C4.01 9.55462 4 9.82745 4 12.0002C4 14.1729 4.00967 14.4447 4.04833 15.2981C4.0875 16.1498 4.22234 16.7311 4.42001 17.2398C4.62451 17.766 4.89785 18.2123 5.34269 18.657C5.7872 19.102 6.23355 19.376 6.75939 19.5803C7.2684 19.7782 7.84991 19.913 8.70143 19.952C9.55478 19.9908 9.82729 20.0003 11.9998 20.0003C14.1727 20.0003 14.4446 19.9908 15.2979 19.952C16.1496 19.913 16.7316 19.7782 17.2406 19.5803C17.7666 19.376 18.2123 19.102 18.6568 18.657C19.1018 18.2123 19.3752 17.766 19.5802 17.2399C19.7768 16.7311 19.9118 16.1496 19.9518 15.2982C19.9902 14.4449 20.0002 14.1729 20.0002 12.0002C20.0002 9.82745 19.9902 9.55478 19.9518 8.70143C19.9118 7.84975 19.7768 7.2684 19.5802 6.75972C19.3752 6.23355 19.1018 5.7872 18.6568 5.34253C18.2118 4.89752 17.7668 4.62418 17.2401 4.42001C16.7301 4.22217 16.1484 4.08734 15.2967 4.04833C14.4434 4.0095 14.1717 4 11.9983 4H12.0008ZM11.2831 5.44168C11.4961 5.44135 11.7338 5.44168 12.0008 5.44168C14.1368 5.44168 14.39 5.44935 15.2335 5.48768C16.0135 5.52335 16.4369 5.65368 16.7189 5.76319C17.0922 5.90819 17.3584 6.08153 17.6382 6.36153C17.9182 6.64154 18.0916 6.90821 18.2369 7.28155C18.3464 7.56322 18.4769 7.98656 18.5124 8.76658C18.5507 9.60993 18.5591 9.86327 18.5591 11.9983C18.5591 14.1334 18.5507 14.3867 18.5124 15.23C18.4767 16.0101 18.3464 16.4334 18.2369 16.7151C18.0919 17.0884 17.9182 17.3543 17.6382 17.6341C17.3582 17.9141 17.0924 18.0874 16.7189 18.2324C16.4372 18.3424 16.0135 18.4724 15.2335 18.5081C14.3902 18.5465 14.1368 18.5548 12.0008 18.5548C9.86456 18.5548 9.61139 18.5465 8.76803 18.5081C7.98802 18.4721 7.56468 18.3418 7.2825 18.2323C6.90916 18.0873 6.64249 17.9139 6.36249 17.6339C6.08248 17.3539 5.90914 17.0879 5.76381 16.7144C5.6543 16.4327 5.5238 16.0094 5.4883 15.2294C5.44997 14.386 5.4423 14.1327 5.4423 11.9963C5.4423 9.85994 5.44997 9.60793 5.4883 8.76458C5.52397 7.98456 5.6543 7.56122 5.76381 7.27922C5.90881 6.90588 6.08248 6.6392 6.36249 6.3592C6.64249 6.07919 6.90916 5.90585 7.2825 5.76052C7.56451 5.65052 7.98802 5.52051 8.76803 5.48468C9.50605 5.45135 9.79206 5.44135 11.2831 5.43968V5.44168ZM16.2712 6.77003C15.7412 6.77003 15.3111 7.19954 15.3111 7.72972C15.3111 8.25973 15.7412 8.68974 16.2712 8.68974C16.8012 8.68974 17.2312 8.25973 17.2312 7.72972C17.2312 7.19971 16.8012 6.7697 16.2712 6.7697V6.77003ZM12.0007 7.89174C9.73186 7.89174 7.89233 9.73128 7.89233 12.0002C7.89233 14.269 9.73186 16.1077 12.0007 16.1077C14.2696 16.1077 16.1085 14.269 16.1085 12.0002C16.1085 9.73128 14.2695 7.89174 12.0006 7.89174H12.0007ZM12.0008 9.33345C13.4735 9.33345 14.6675 10.5273 14.6675 12.0002C14.6675 13.4729 13.4735 14.6669 12.0008 14.6669C10.5279 14.6669 9.33403 13.4729 9.33403 12.0002C9.33403 10.5273 10.5279 9.33345 12.0008 9.33345Z" fill="white"/>
</svg>
