<svg width="188" height="28" viewBox="0 0 188 28" fill="none" xmlns="http://www.w3.org/2000/svg">
<path fill-rule="evenodd" clip-rule="evenodd" d="M20.5925 28H28.2885C30.0965 28 31.6325 27.36 32.8965 26.064C34.1925 24.752 34.8485 23.168 34.8485 21.328V6.656C34.8485 4.816 34.1925 3.264 32.8965 1.968C31.6325 0.656 30.0965 0 28.2885 0H22.0005C21.2325 2.048 20.5925 4.16 20.1125 6.32H28.2885C28.5125 6.32 28.6245 6.432 28.6245 6.656V21.328C28.6245 21.552 28.5125 21.664 28.2885 21.664H19.3765C19.6325 23.84 20.0325 25.952 20.5925 28ZM11.184 4.27219H4.16C3.008 4.27219 2.032 4.68819 1.2 5.52019C0.4 6.33619 0 7.31219 0 8.46419V17.6962C0 18.8482 0.4 19.8402 1.2 20.6722C2.032 21.4882 3.008 21.8882 4.16 21.8882H9.952C9.792 20.5762 9.68 19.2482 9.632 17.9202H4.16C4.016 17.9202 3.952 17.8562 3.952 17.7122V8.46419C3.952 8.32019 4.016 8.25619 4.16 8.25619H10.288C10.528 6.91219 10.832 5.58419 11.184 4.27219ZM67.1035 8.19222V9.48822H64.0635V8.17622C64.0635 8.06422 64.0155 8.01622 63.9195 8.01622H53.8075C53.6955 8.01622 53.6475 8.06422 53.6475 8.17622V11.6962C53.6475 11.8082 53.6955 11.8562 53.8075 11.8562H63.9195C64.7835 11.8562 65.5355 12.1762 66.1595 12.8322C66.7835 13.4722 67.1035 14.2562 67.1035 15.1682V18.6882C67.1035 19.6002 66.7835 20.3842 66.1595 21.0402C65.5355 21.6642 64.7835 21.9842 63.9195 21.9842H53.8075C52.9115 21.9842 52.1595 21.6802 51.5355 21.0402C50.9275 20.3842 50.6235 19.6002 50.6235 18.6882V17.3762H53.6475V18.6882C53.6475 18.8002 53.6955 18.8482 53.8075 18.8482H63.9195C64.0155 18.8482 64.0635 18.8002 64.0635 18.6882V15.1682C64.0635 15.0562 64.0155 15.0082 63.9195 15.0082H53.8075C52.9115 15.0082 52.1595 14.7042 51.5355 14.0642C50.9275 13.4082 50.6235 12.6242 50.6235 11.7122V8.19222C50.6235 7.26422 50.9275 6.49622 51.5355 5.85622C52.1755 5.20022 52.9275 4.88022 53.8075 4.88022H63.9195C64.7835 4.88022 65.5355 5.20022 66.1595 5.85622C66.7835 6.49622 67.1035 7.28022 67.1035 8.19222ZM85.9995 8.03222H72.7515C72.6395 8.03222 72.5915 8.08022 72.5915 8.19222V18.7202C72.5915 18.8322 72.6395 18.8802 72.7515 18.8802H85.9995V22.0162H72.7515C71.8555 22.0162 71.1035 21.7122 70.4795 21.0722C69.8715 20.4162 69.5675 19.6322 69.5675 18.7202V8.20822C69.5675 7.28022 69.8715 6.51222 70.4795 5.87222C71.1195 5.21622 71.8715 4.89622 72.7515 4.89622H85.9995V8.03222ZM101.632 4.89622H91.5195C90.6235 4.89622 89.8715 5.21622 89.2475 5.85622C88.6395 6.49622 88.3355 7.28022 88.3355 8.19222V18.7202C88.3355 19.6322 88.6395 20.4162 89.2475 21.0722C89.8875 21.6962 90.6395 22.0162 91.5195 22.0162H101.632C102.496 22.0162 103.248 21.7122 103.872 21.0722C104.496 20.4162 104.816 19.6322 104.816 18.7202V8.20822C104.816 7.28022 104.496 6.51222 103.872 5.87222C103.248 5.21622 102.496 4.89622 101.632 4.89622ZM101.632 18.8642H91.5195C91.4075 18.8642 91.3595 18.8002 91.3595 18.7042V8.19222C91.3595 8.08022 91.4075 8.03222 91.5195 8.03222H101.632C101.728 8.03222 101.776 8.08022 101.776 8.19222V18.7042C101.776 18.8162 101.728 18.8642 101.632 18.8642ZM107.328 4.91222H120.592C121.472 4.91222 122.24 5.23222 122.864 5.88822C123.488 6.54422 123.808 7.32822 123.808 8.22422V12.8162C123.808 13.7282 123.488 14.4962 122.864 15.1522C122.224 15.8082 121.472 16.1282 120.592 16.1282L110.416 16.1442L110.352 16.1282V22.0002H107.328V4.91222ZM120.752 12.8322V8.22422C120.752 8.11222 120.704 8.04822 120.592 8.06422H110.496C110.384 8.06422 110.336 8.11222 110.336 8.22422V12.8322C110.336 12.9442 110.384 12.9922 110.496 12.9922H120.592C120.704 12.9922 120.752 12.9442 120.752 12.8322ZM140.608 8.03222V4.89622H125.456V22.0162H140.608V18.8802H128.512V15.0242H138.256V11.8882H128.512V8.03222H140.608ZM151.872 21.0242C152.528 21.6802 153.312 22.0002 154.208 22.0002V22.0162H164.688C165.6 22.0162 166.384 21.6962 167.04 21.0402C167.696 20.3842 168.016 19.6002 168.016 18.7042V12.3042H160.976V15.4722H164.848V18.0002C164.848 18.4482 164.816 18.7042 164.752 18.7682C164.688 18.8162 164.448 18.8322 164.016 18.8322H154.864C154.416 18.8322 154.16 18.8162 154.096 18.7682C154.048 18.7042 154.032 18.4482 154.032 18.0002V8.88022C154.032 8.43222 154.048 8.19222 154.096 8.14422C154.16 8.08022 154.416 8.04822 154.864 8.04822H164.016C164.448 8.04822 164.688 8.08022 164.752 8.14422C164.816 8.19222 164.848 8.43222 164.848 8.88022V9.52022H168.016V8.19222C168.016 7.28022 167.68 6.51222 167.04 5.85622C166.4 5.20022 165.6 4.88022 164.688 4.88022H154.208C153.296 4.88022 152.528 5.20022 151.872 5.85622C151.216 6.51222 150.896 7.29622 150.896 8.19222V18.6882C150.896 19.6002 151.216 20.3682 151.872 21.0242ZM171.6 21.0242C172.256 21.6802 173.04 22.0002 173.936 22.0002V22.0162H184.416C185.328 22.0162 186.112 21.6962 186.768 21.0402C187.424 20.3842 187.744 19.6002 187.744 18.7042V12.3042H180.704V15.4722H184.576V18.0002C184.576 18.4482 184.544 18.7042 184.48 18.7682C184.416 18.8162 184.176 18.8322 183.744 18.8322H174.592C174.16 18.8322 173.904 18.8162 173.84 18.7682C173.792 18.7042 173.776 18.4482 173.776 18.0002V8.88022C173.776 8.43222 173.792 8.19222 173.84 8.14422C173.888 8.08022 174.144 8.04822 174.592 8.04822H183.744C184.176 8.04822 184.416 8.08022 184.48 8.14422C184.544 8.19222 184.576 8.43222 184.576 8.88022V9.52022H187.744V8.19222C187.744 7.28022 187.424 6.51222 186.768 5.85622C186.112 5.20022 185.328 4.88022 184.416 4.88022H173.936C173.024 4.88022 172.256 5.20022 171.6 5.85622C170.944 6.51222 170.624 7.29622 170.624 8.19222V18.6882C170.624 19.6002 170.944 20.3682 171.6 21.0242ZM144.336 22.0162V18.8642H147.488V22.0162H144.336Z" fill="white"/>
</svg>
