<svg width="39" height="48" viewBox="0 0 39 48" fill="none" xmlns="http://www.w3.org/2000/svg">
<g clip-path="url(#clip0_75_2010)">
<path d="M29.4084 32.7973H11.328C11.0813 32.7973 10.8817 32.9919 10.8817 33.2325V40.0253C10.8817 40.2658 11.0813 40.4605 11.328 40.4605H18.8823C19.1413 40.4605 19.2703 40.7648 19.0881 40.9432L12.1832 47.7012C11.9879 47.8925 11.7229 47.9995 11.4457 47.9995H0.559649C0.25106 47.9995 0 47.7556 0 47.4538V41.007C0 40.7384 0.108969 40.4809 0.303362 40.2905L11.4518 29.3822C11.6715 29.1672 11.6706 28.8204 11.4509 28.6062L0.305102 17.7388C0.109837 17.5484 0 17.29 0 17.0214V10.5193C0 10.2184 0.250188 9.97363 0.559649 9.97363H11.3899C11.6662 9.97363 11.9304 10.0807 12.1256 10.2711L19.1447 17.1149C19.3278 17.2934 19.1979 17.5985 18.939 17.5985H11.3289C11.0822 17.5985 10.8825 17.7931 10.8825 18.0337V24.5579C10.8825 24.7985 11.0822 24.9931 11.3289 24.9931H29.4093C29.7597 24.9931 30.0439 25.2702 30.0439 25.6118V32.1786C30.043 32.5202 29.7588 32.7973 29.4084 32.7973Z" fill="white"/>
<path d="M38.9992 47.4323V41.0066C38.9992 40.7057 38.749 40.4609 38.4395 40.4609H24.3089C24.0501 40.4609 23.9202 40.7661 24.1032 40.9446L31.0343 47.7025C31.2295 47.893 31.4945 48 31.77 48H38.416C38.7385 48 38.9992 47.7459 38.9992 47.4323Z" fill="white"/>
<path d="M38.4418 9.97363H31.7199C31.4436 9.97363 31.1778 10.0807 30.9825 10.272L23.9896 17.1149C23.8073 17.2934 23.9364 17.5977 24.1952 17.5977C28.9366 17.5985 33.677 17.5985 38.4182 17.5994C38.7399 17.5994 39.0005 17.3452 39.0005 17.0316V10.5193C39.0005 10.2184 38.7504 9.97363 38.4418 9.97363Z" fill="white"/>
<path d="M1.82751 0.0576172H0V4.06825H0.675768V2.57859H1.82751C2.90874 2.57859 3.27307 2.04002 3.27307 1.3181C3.27307 0.596189 2.90286 0.0576172 1.82751 0.0576172ZM1.83927 2.0171H0.675768V0.619106H1.83927C2.34462 0.619106 2.5973 0.899849 2.5973 1.3181C2.5973 1.73636 2.34462 2.0171 1.83927 2.0171Z" fill="white" fill-opacity="0.3"/>
<path d="M5.84938 4.12523C6.99526 4.12523 7.81202 3.40331 7.81202 2.06261C7.81202 0.721914 6.99526 0 5.84938 0C4.70351 0 3.88672 0.721914 3.88672 2.06261C3.88672 3.40331 4.70351 4.12523 5.84938 4.12523ZM5.84938 3.54655C5.10897 3.54655 4.58599 3.02517 4.58599 2.06261C4.58599 1.10006 5.10897 0.572948 5.84938 0.572948C6.5839 0.572948 7.11277 1.10006 7.11277 2.06261C7.11277 3.02517 6.5839 3.54655 5.84938 3.54655Z" fill="white" fill-opacity="0.3"/>
<path d="M12.9864 0.0576172L12.1931 3.34061H12.1696L11.3763 0.0576172H10.5007L9.70156 3.34061H9.67803L8.89061 0.0576172H8.20312L9.24909 4.06825H10.1246L10.9238 0.756616H10.9473L11.7465 4.06825H12.622L13.668 0.0576172H12.9864Z" fill="white" fill-opacity="0.3"/>
<path d="M17.2389 0.630563V0.0576172H14.3008V4.06825H17.2389V3.49531H14.9647V2.32076H16.9803V1.74782H14.9647V0.630563H17.2389Z" fill="white" fill-opacity="0.3"/>
<path d="M21.1966 2.8135C21.1966 2.48692 21.0438 2.2119 20.6618 2.16034V2.13742C21.0144 2.02283 21.3023 1.70198 21.3023 1.16913C21.3023 0.57327 20.9615 0.0576172 19.9861 0.0576172H18.0352V4.06825H18.7051V2.46973H19.9802C20.321 2.46973 20.4856 2.6187 20.4856 2.89371V3.5125C20.4856 3.75886 20.5326 3.95367 20.5972 4.06825H21.2965V3.98804C21.2259 3.83908 21.1966 3.66719 21.1966 3.43228V2.8135ZM19.8862 1.90824H18.7051V0.619106H19.8862C20.368 0.619106 20.5972 0.871204 20.5972 1.24935C20.5972 1.60458 20.3798 1.90824 19.8862 1.90824Z" fill="white" fill-opacity="0.3"/>
<path d="M25.0475 0.630563V0.0576172H22.1094V4.06825H25.0475V3.49531H22.7734V2.32076H24.7889V1.74782H22.7734V0.630563H25.0475Z" fill="white" fill-opacity="0.3"/>
<path d="M27.5146 0.0576172H25.8457V4.06825H27.5146C28.8837 4.06825 29.4126 3.27185 29.4126 2.06867C29.4126 0.825368 28.8191 0.0576172 27.5146 0.0576172ZM27.5616 3.48384H26.5391V0.636298H27.5616C28.4313 0.636298 28.7133 1.3181 28.7133 2.06867C28.7133 2.81923 28.4019 3.48384 27.5616 3.48384Z" fill="white" fill-opacity="0.3"/>
<path d="M34.2495 2.00564V1.98272C34.6079 1.86813 34.8606 1.59885 34.8606 1.12903C34.8606 0.498788 34.4434 0.0576172 33.5384 0.0576172H31.6992V4.06825H33.6148C34.5903 4.06825 34.9605 3.58698 34.9605 3.00257C34.9605 2.57286 34.7666 2.15461 34.2495 2.00564ZM33.4797 0.619106C33.9615 0.619106 34.1849 0.819639 34.1849 1.19206C34.1849 1.56447 33.9615 1.74782 33.4973 1.74782H32.3632V0.619106H33.4797ZM33.5384 3.50104H32.3632V2.30357H33.5267C34.0262 2.30357 34.2847 2.52702 34.2847 2.90517C34.2847 3.27759 34.0615 3.50104 33.5384 3.50104Z" fill="white" fill-opacity="0.3"/>
<path d="M38.9993 0.0576172H38.1942L37.0895 1.63323H37.066L35.9671 0.0576172H35.168L36.7311 2.24055V4.06825H37.4304V2.24055L38.9993 0.0576172Z" fill="white" fill-opacity="0.3"/>
</g>
<defs>
<clipPath id="clip0_75_2010">
<rect width="39" height="48" fill="white"/>
</clipPath>
</defs>
</svg>
