<svg width="24" height="24" viewBox="0 0 24 24" fill="none" xmlns="http://www.w3.org/2000/svg">
<path d="M19.1859 8.49436C19.1859 8.65217 19.1859 8.80998 19.1859 8.94525C19.1859 13.6119 15.4634 19 8.67801 19C6.58115 19 4.64921 18.4138 3 17.4219C3.28272 17.4444 3.58901 17.467 3.87173 17.467C5.59162 17.467 7.19372 16.9034 8.46597 15.9565C6.84031 15.934 5.47382 14.8969 5.02618 13.4992C5.26178 13.5443 5.47382 13.5668 5.73298 13.5668C6.06283 13.5668 6.39267 13.5217 6.69895 13.4316C5.00262 13.1159 3.73037 11.6957 3.73037 9.98229C3.73037 9.95974 3.73037 9.95974 3.73037 9.9372C4.22513 10.2077 4.79058 10.3655 5.40314 10.3881C4.41361 9.75684 3.75393 8.67472 3.75393 7.43478C3.75393 6.781 3.94241 6.1723 4.24869 5.65378C6.06283 7.79549 8.79581 9.19324 11.8586 9.35105C11.788 9.10306 11.7644 8.80998 11.7644 8.53945C11.7644 6.5781 13.4136 5 15.4634 5C16.5236 5 17.4895 5.42834 18.1492 6.10467C18.9974 5.94686 19.7749 5.65378 20.5052 5.24799C20.2225 6.08213 19.6335 6.75845 18.8796 7.20934C19.6335 7.11916 20.3403 6.93881 21 6.64573C20.5288 7.36715 19.9162 7.99839 19.1859 8.49436Z" fill="white"/>
</svg>
