<svg width="24" height="24" viewBox="0 0 24 24" fill="none" xmlns="http://www.w3.org/2000/svg">
<path fill-rule="evenodd" clip-rule="evenodd" d="M21.0641 7.24482C21.1962 6.81553 21.0641 6.5 20.4354 6.5H18.3568C17.8283 6.5 17.5848 6.77254 17.4526 7.07316C17.4526 7.07316 16.3955 9.58478 14.898 11.2162C14.4136 11.6885 14.1934 11.8386 13.9291 11.8386C13.7969 11.8386 13.6057 11.6885 13.6057 11.2592V7.24482C13.6057 6.72955 13.4523 6.5 13.0118 6.5H9.74544C9.41524 6.5 9.21658 6.73911 9.21658 6.96576C9.21658 7.45425 9.96518 7.56686 10.0424 8.9407V11.9247C10.0424 12.5789 9.92123 12.6976 9.65695 12.6976C8.9523 12.6976 7.23834 10.1746 6.2216 7.2878C6.02235 6.72666 5.82251 6.5 5.29128 6.5H3.21267C2.61878 6.5 2.5 6.77254 2.5 7.07316C2.5 7.60984 3.2048 10.2718 5.78123 13.7924C7.49906 16.1965 9.91886 17.5 12.121 17.5C13.4424 17.5 13.6057 17.2105 13.6057 16.7119V14.8947C13.6057 14.3158 13.7309 14.2003 14.1491 14.2003C14.4577 14.2003 14.9861 14.3505 16.2194 15.5097C17.6287 16.8834 17.8609 17.5 18.6538 17.5H20.7324C21.3263 17.5 21.6232 17.2105 21.4519 16.6392C21.2645 16.0699 20.5916 15.244 19.6987 14.2647C19.2143 13.7064 18.4875 13.1054 18.2674 12.8049C17.9591 12.4184 18.0471 12.2468 18.2674 11.9035C18.2674 11.9035 20.7998 8.42572 21.0641 7.24496V7.24482Z" fill="white"/>
</svg>
