<svg width="24" height="24" viewBox="0 0 24 24" fill="none" xmlns="http://www.w3.org/2000/svg">
<path d="M21.5761 7.19225C21.3478 6.33488 20.663 5.65116 19.8043 5.42326C18.25 5 12 5 12 5C12 5 5.73913 5.01085 4.18478 5.43411C3.32609 5.66202 2.6413 6.34574 2.41304 7.2031C2 8.75504 2 12 2 12C2 12 2 15.245 2.42391 16.8078C2.65217 17.6651 3.33696 18.3488 4.19565 18.5767C5.75 19 12 19 12 19C12 19 18.25 19 19.8043 18.5767C20.663 18.3488 21.3478 17.6651 21.5761 16.8078C22 15.2558 22 12 22 12C22 12 22 8.75504 21.5761 7.19225ZM10 14.9953V9.00465L15.1957 12L10 14.9953Z" fill="white"/>
</svg>
